<?xml version="1.0" encoding="UTF-8"?>
<svg width="51px" height="66px" viewBox="0 0 51 66" version="1.1" xmlns="http://www.w3.org/2000/svg" xmlns:xlink="http://www.w3.org/1999/xlink">
    <!-- Generator: Sketch 51.1 (57501) - http://www.bohemiancoding.com/sketch -->
    <title>03</title>
    <desc>Created with Sketch.</desc>
    <defs>
        <circle id="path-1" cx="25.5" cy="40.5" r="21.5"></circle>
        <filter x="-4.7%" y="-4.7%" width="109.3%" height="109.3%" filterUnits="objectBoundingBox" id="filter-2">
            <feOffset dx="0" dy="4" in="SourceAlpha" result="shadowOffsetInner1"></feOffset>
            <feComposite in="shadowOffsetInner1" in2="SourceAlpha" operator="arithmetic" k2="-1" k3="1" result="shadowInnerInner1"></feComposite>
            <feColorMatrix values="0 0 0 0 0.782286352   0 0 0 0 0.694572306   0 0 0 0 0.553255231  0 0 0 1 0" type="matrix" in="shadowInnerInner1"></feColorMatrix>
        </filter>
    </defs>
    <g id="Page-1" stroke="none" stroke-width="1" fill="none" fill-rule="evenodd">
        <g id="群内排名" transform="translate(-40.000000, -803.000000)">
            <g id="Group-13-Copy-2" transform="translate(40.000000, 786.000000)">
                <g id="03" transform="translate(0.000000, 17.000000)">
                    <g id="Group-11" transform="translate(5.000000, 2.000000)">
                        <rect id="Rectangle-9" fill="#93B7E2" x="16" y="0" width="8" height="15"></rect>
                        <rect id="Rectangle-9-Copy-2" fill="#FF967E" x="32" y="0" width="8" height="15"></rect>
                        <rect id="Rectangle-9-Copy" fill="#FF967E" x="0" y="0" width="8" height="15"></rect>
                        <rect id="Rectangle-9-Copy-3" fill="#FFFFFF" x="8" y="0" width="8" height="15"></rect>
                        <rect id="Rectangle-9-Copy-4" fill="#FFFFFF" x="24" y="0" width="8" height="15"></rect>
                    </g>
                    <g id="Group-11" transform="translate(5.000000, 17.000000)">
                        <rect id="Rectangle-9" fill="#93B7E2" x="16" y="0" width="8" height="7"></rect>
                        <polygon id="Rectangle-9-Copy-2" fill="#FF967E" points="32 0 40 0 38 7 32 7"></polygon>
                        <polygon id="Rectangle-9-Copy" fill="#FF967E" points="0 0 8 0 8 7 2 7"></polygon>
                        <rect id="Rectangle-9-Copy-3" fill="#FFFFFF" x="8" y="0" width="8" height="7"></rect>
                        <rect id="Rectangle-9-Copy-4" fill="#FFFFFF" x="24" y="0" width="8" height="7"></rect>
                    </g>
                    <rect id="Rectangle-3" fill="#D8C8AF" x="1" y="0" width="49" height="9" rx="1"></rect>
                    <path d="M2,0 L49,0 C49.5522847,-1.01453063e-16 50,0.44771525 50,1 L50,5 L1,5 L1,1 C1,0.44771525 1.44771525,1.01453063e-16 2,0 Z" id="Rectangle-3" fill="#E8D9C3"></path>
                    <circle id="Oval" fill="#E5D8C3" cx="25.5" cy="40.5" r="25.5"></circle>
                    <g id="Oval">
                        <use fill="#DBC9AC" fill-rule="evenodd" xlink:href="#path-1"></use>
                        <use fill="black" fill-opacity="1" filter="url(#filter-2)" xlink:href="#path-1"></use>
                    </g>
                    <text font-family="PingFangSC-Semibold, PingFang SC" font-size="28" font-weight="500" fill="#FFFFFF">
                        <tspan x="9" y="51">03</tspan>
                    </text>
                </g>
            </g>
        </g>
    </g>
</svg>