<?xml version="1.0" encoding="UTF-8"?>
<svg width="23px" height="25px" viewBox="0 0 23 25" version="1.1" xmlns="http://www.w3.org/2000/svg" xmlns:xlink="http://www.w3.org/1999/xlink">
    <!-- Generator: Sketch 51.1 (57501) - http://www.bohemiancoding.com/sketch -->
    <title>排行 (1)</title>
    <desc>Created with Sketch.</desc>
    <defs></defs>
    <g id="Page-1" stroke="none" stroke-width="1" fill="none" fill-rule="evenodd">
        <g id="主页" transform="translate(-564.000000, -694.000000)" fill="#ABB1C3" fill-rule="nonzero">
            <g id="Group-7" transform="translate(40.000000, 439.000000)">
                <g id="Group-13" transform="translate(524.000000, 250.000000)">
                    <g id="排行-(1)" transform="translate(0.000000, 5.000000)">
                        <path d="M20,0 C18.346136,0 17,1.42910514 17,3.18496833 L17,21.8150317 C17,23.5708665 18.3461093,25 20,25 C21.6538907,25 23,23.5708949 23,21.8150317 L23,3.18496833 C23,1.42910514 21.653864,0 20,0 Z M21.0841875,21.8150317 C21.0841875,22.4496407 20.5977538,22.966066 20,22.966066 C19.4022462,22.966066 18.9158124,22.4496407 18.9158124,21.8150317 L18.9158124,3.18496833 C18.9158124,2.55035933 19.4022462,2.03393399 20,2.03393399 C20.5977538,2.03393399 21.0841875,2.55035933 21.0841875,3.18496833 L21.0841875,21.8150317 Z" id="Shape"></path>
                        <path d="M11,3 C9.34610928,3 8,4.46057176 8,6.25611176 L8,21.7449037 C8,23.5393992 9.34610928,25 11,25 C12.653864,25 14,23.5394282 14,21.7449037 L14,6.25608273 C13.9999733,4.46057176 12.653864,3 11,3 Z M12.0841875,21.7449037 C12.0841875,22.3934858 11.5977538,22.921282 11,22.921282 C10.4022462,22.921282 9.91581243,22.3934858 9.91581243,21.7449037 L9.91581245,6.25608273 C9.91581245,5.60648518 10.4022462,5.07868895 11,5.07868895 C11.5977538,5.07868895 12.0841875,5.60648515 12.0841875,6.25608273 L12.0841875,21.7449037 Z" id="Shape"></path>
                        <path d="M2.99999999,8 C1.34613601,8 0,9.40874701 0,11.1395973 L0,21.8604027 C0,23.591225 1.34610928,25 2.99999999,25 C4.6538907,25 5.99999997,23.591253 5.99999997,21.8604027 L6,11.1395973 C5.99997324,9.40877499 4.65386396,8 2.99999999,8 Z M4.08418753,21.8604027 C4.08418753,22.4859715 3.5977538,22.9950401 2.99999999,22.9950401 C2.40224617,22.9950401 1.91581244,22.4859715 1.91581244,21.8604027 L1.91581244,11.1395973 C1.91581244,10.5140285 2.40224617,10.0049599 2.99999999,10.0049599 C3.5977538,10.0049599 4.08418753,10.5140285 4.08418753,11.1395973 L4.08418753,21.8604027 Z" id="Shape"></path>
                    </g>
                </g>
            </g>
        </g>
    </g>
</svg>