<?xml version="1.0" encoding="UTF-8"?>
<svg width="365px" height="71px" viewBox="0 0 365 71" version="1.1" xmlns="http://www.w3.org/2000/svg" xmlns:xlink="http://www.w3.org/1999/xlink">
    <!-- Generator: Sketch 51.2 (57519) - http://www.bohemiancoding.com/sketch -->
    <title>logo</title>
    <desc>Created with Sketch.</desc>
    <defs></defs>
    <g id="Page-1" stroke="none" stroke-width="1" fill="none" fill-rule="evenodd">
        <g id="关于" transform="translate(-193.000000, -366.000000)" fill="#008B9C" fill-rule="nonzero">
            <g id="logo" transform="translate(193.000000, 366.000000)">
                <path d="M281.160572,26 L289.173291,26 L289.173291,64.5413417 C289.173291,68.9641186 287.313196,70.7893916 282.949126,70.7893916 L270,70.7893916 L270,63.1372855 L279.658188,63.1372855 C280.075771,63.1190839 280.468825,62.9386327 280.750666,62.6357284 C281.032507,62.3328241 281.179984,61.932348 281.160572,61.5226209 L281.160572,45.0951638 L270,45.0951638 L270,37.0218409 L281.232114,37.0218409 L281.160572,26 Z M294.18124,26 L302.623211,26 L302.623211,37.2324493 L315,37.2324493 L315,44.673947 L302.623211,44.673947 L302.623211,56.9594384 C302.623211,60.8907956 305.341812,62.9266771 310.993641,62.9266771 L315,62.9266771 L315,71 L309.205087,71 C300.834658,71 294.18124,68.3322933 294.18124,59.276131 L294.18124,26 Z" id="Shape"></path>
                <path d="M320.650705,38.8771384 L320.650705,44.9657854 C327.744741,45.3453115 334.21593,41.0124469 336.433627,34.3981337 L338.861768,34.3981337 L338.861768,45.3856921 L346.717521,45.3856921 L346.717521,34.3981337 L349.288495,34.3981337 C351.69222,40.8420027 357.999807,45.0845226 365,44.9657854 L365,38.8771384 C361.673002,38.8844541 358.584616,37.185377 356.858584,34.3981337 L365,34.3981337 L365,28.4494557 L346.431857,28.4494557 L346.431857,26 L338.576105,26 L338.576105,28.5194401 L320.650705,28.5194401 L320.650705,34.4681182 L328.435042,34.4681182 C327.271809,37.4966119 324.141536,39.3487052 320.864953,38.9471229 L320.650705,38.8771384 Z M364.928584,52.9440124 C364.967153,51.5649715 364.434964,50.2292609 363.453058,49.2406734 C362.471151,48.2520859 361.122998,47.694661 359.715221,47.6951788 L357.858407,47.6951788 L357.858407,45.3856921 L350.716813,45.3856921 L350.716813,47.9051322 L343.57522,47.9051322 L343.57522,64.8413686 C343.638106,65.2473796 343.515871,65.6599705 343.240892,65.9698578 C342.965913,66.279745 342.565935,66.4556611 342.146901,66.4510109 C340.218671,66.4510109 340.432919,64.911353 340.432919,64.911353 L340.432919,47.8351477 L334.148317,47.8351477 L334.148317,45.3856921 L327.006723,45.3856921 L327.006723,47.9051322 L325.364157,47.9051322 C323.905909,47.8637839 322.496693,48.4230842 321.478786,49.4471884 C320.460879,50.4712925 319.927414,51.8664988 320.007962,53.2939347 L320.007962,71 L325.721236,71 L325.721236,54.1337481 C325.721236,53.2239502 326.435396,53.3639191 326.435396,53.3639191 L327.006723,53.3639191 L327.006723,71 L334.148317,71 L334.148317,53.3639191 L335.433803,53.3639191 L335.433803,66.0311042 C335.433803,66.0311042 335.433803,70.4401244 342.575397,70.4401244 C349.71699,70.4401244 348.859999,66.4510109 348.859999,66.4510109 L348.859999,53.3639191 L350.716813,53.3639191 L350.716813,71 L357.858407,71 L357.858407,53.3639191 L358.715398,53.3639191 C359.408171,53.4709904 359.903528,54.077776 359.858053,54.7636081 L359.858053,71 L365,71 L364.928584,52.9440124 Z" id="Shape"></path>
                <polygon id="Shape" points="104 71 104 71 104 26 116 26 116 71"></polygon>
                <path d="M124.357143,40.3213729 C124.357143,49.7285491 132.928571,51.9048362 132.928571,55.9765991 C132.928571,57.6614665 131.285714,58.8549142 128.071429,58.8549142 L123,58.8549142 L123,71 L131,71 C134.214286,71 144.5,71 146.214286,61.0312012 C147.021328,56.0053563 145.258034,50.9112858 141.5,47.4118565 C139.207335,45.6993608 137.672793,43.185681 137.214286,40.3915757 C137.214286,38.0046802 141.071429,38.0046802 142.214286,38.0046802 L148,38.0046802 L148,26 L141.5,26 C138.642857,26 124.357143,26 124.357143,40.0405616" id="Shape"></path>
                <path d="M53,52.1338986 C53.163826,44.8160244 56.412641,37.90234 61.9549889,33.0771145 C67.5848867,28.396031 74.7267148,25.8898392 82.0681782,26.0190463 C89.0842799,25.6859394 95.5604806,29.7479335 98.2724438,36.1826645 C99.3697263,42.0059916 99.224454,47.9931711 97.8460158,53.7572542 L65.5796272,53.7572542 C66.2903406,56.8628042 69.3464083,59.2625474 75.8139002,60.3212577 C80.1858502,60.6646214 84.5799629,60.0377805 88.6778129,58.4861599 L88.6778129,69.4967463 C81.3517853,71.5010846 73.6163682,71.5010846 66.2903406,69.4967463 C58.7072611,66.9451445 53.4468201,60.0727671 53,52.1338986 Z M85.6928166,43.2407326 C85.6928166,43.2407326 87.043172,36.7473099 81.6417502,36.5355679 C75.8981703,35.7924496 70.2750026,38.5846229 67.4274821,43.5936361 L85.6928166,43.2407326 Z" id="Shape"></path>
                <path d="M152.070978,52.1344243 C152.225854,44.8157499 155.47198,37.8998933 161.014249,33.0808315 C166.633556,28.3949164 173.76822,25.8883776 181.101117,26.0239453 C188.119289,25.6482034 194.609701,29.723763 197.284178,36.1858615 C198.36542,42.0093752 198.220411,47.9925305 196.858308,53.7575081 L164.634144,53.7575081 C165.272949,56.862538 168.395995,59.2618793 174.855024,60.3204123 C179.197866,60.657888 183.561853,60.031171 187.631124,58.4856219 L187.631124,69.4943643 C180.315162,71.5018786 172.588911,71.5018786 165.272949,69.4943643 C157.641386,66.9410172 152.370038,59.9904698 152,51.9932866 L152.070978,52.1344243 Z M185.004926,43.2427477 C185.004926,43.2427477 186.282536,36.7504123 180.959161,36.5387058 C175.223097,35.7957119 169.607288,38.5874177 166.763494,43.595592 L185.004926,43.2427477 Z" id="Shape"></path>
                <path d="M239.628952,27.4553709 C227.966722,22.0820753 218.164725,33.3171479 218.164725,33.3171479 L218.164725,26.338842 L205,26.338842 L205,71 L218.236273,71 L218.236273,52.7168384 C218.462157,50.0280131 219.743728,47.5280791 221.813644,45.7385325 C229.540765,38.7602265 234.40599,37.3645654 234.40599,45.180268 L234.40599,71 L248,71 L248,44.5522205 C248,33.1775818 243.85025,29.4092966 239.628952,27.4553709" id="Shape"></path>
                <path d="M45.7821241,40.3257211 C44.0134615,37.0923188 41.5402595,34.2802281 38.5381171,32.0891092 C45.2794498,28.0458236 47.4711059,19.4528366 43.4640419,12.7756743 C39.3101446,6.49891444 32.5593154,2.32104782 24.9918241,1.34382497 C16.7401332,-0.0516004857 8.33542681,-0.362026823 0,0.420756389 L0,71 L26.5855056,71 C34.0294398,70.8933714 40.8996438,67.0592048 44.7923876,60.8389889 C48.6851315,54.618773 49.0585997,46.878275 45.7821241,40.3257211 M23.1808223,13.4147218 C27.2929018,13.5875405 30.728446,16.5414857 31.4389903,20.5152493 C31.9460708,25.4146133 27.7445467,26.5506977 22.818622,26.5506977 L13.5462931,26.5506977 L13.5462931,12.9176848 C16.7664635,12.8055886 19.9904476,12.9719111 23.1808223,13.4147218 M24.1949833,58.9291032 L12.9667725,58.9291032 L12.9667725,38.763605 C17.0515206,38.4624644 21.1591486,38.7979868 25.1367042,39.7576789 C29.5232362,40.5429871 32.9558957,43.9076572 33.7570725,48.2073066 C34.109513,50.9078341 33.2648491,53.6269818 31.4368017,55.6767381 C29.6087543,57.7264943 26.9724661,58.9104749 24.1949833,58.9291032" id="Shape"></path>
            </g>
        </g>
    </g>
</svg>