<?xml version="1.0" encoding="UTF-8"?>
<svg width="272px" height="402px" viewBox="0 0 272 402" version="1.1" xmlns="http://www.w3.org/2000/svg" xmlns:xlink="http://www.w3.org/1999/xlink">
    <!-- Generator: Sketch 50 (54983) - http://www.bohemiancoding.com/sketch -->
    <title>空数据2-1</title>
    <desc>Created with Sketch.</desc>
    <defs></defs>
    <g id="Page-1" stroke="none" stroke-width="1" fill="none" fill-rule="evenodd">
        <g id="暂无资料" transform="translate(-239.000000, -437.000000)">
            <g id="空数据2-1" transform="translate(239.000000, 418.000000)">
                <text id="暂无资料…" font-family="PingFangSC-Regular, PingFang SC" font-size="32" font-weight="normal" fill="#88DECD">
                    <tspan x="56" y="417">暂无资料…</tspan>
                </text>
                <g>
                    <ellipse id="Oval-14" fill="#DDF2F3" cx="127.514286" cy="325.322905" rx="73.5428571" ry="6.67709497"></ellipse>
                    <g id="Group-10" transform="translate(27.228571, 138.364246)">
                        <polygon id="Rectangle" fill="#92D9DA" points="88.5857143 0 88.5857143 41.7318436 0 20.0312849"></polygon>
                        <path d="M193.885714,0 L193.885714,38.3932961 C188.234196,44.5264969 183.777053,47.3086198 180.514286,46.7396648 C177.251519,46.1707098 146.051519,33.929369 86.9142857,10.0156425 L193.885714,0 Z" id="Rectangle" fill="#CFF4F3" transform="translate(140.400000, 23.406057) scale(-1, 1) translate(-140.400000, -23.406057) "></path>
                    </g>
                    <rect id="Rectangle-11" fill="#B35BEF" transform="translate(259.856282, 116.271419) rotate(20.000000) translate(-259.856282, -116.271419) " x="253.170567" y="99.5786817" width="13.3714286" height="33.3854749"></rect>
                    <ellipse id="Oval-8" fill="#FFDC6A" cx="5.5" cy="143.372067" rx="5.01428571" ry="5.00782123"></ellipse>
                    <ellipse id="Oval-8-Copy-2" fill="#FF6392" cx="231.142857" cy="64.9162011" rx="3.34285714" ry="3.33854749"></ellipse>
                    <ellipse id="Oval-8" fill="#0ED0FA" cx="104.114286" cy="28.1921788" rx="3.34285714" ry="3.33854749"></ellipse>
                    <rect id="Rectangle-13" fill="#FF6392" transform="translate(17.684295, 109.352567) rotate(-39.000000) translate(-17.684295, -109.352567) " x="12.6700089" y="87.6520084" width="10.0285714" height="43.4011173"></rect>
                    <g id="Group-5" transform="translate(158.183587, 104.711280) rotate(30.000000) translate(-158.183587, -104.711280) translate(118.683587, 54.211280)">
                        <path d="M1,0 L77.7959184,0 C78.3482031,-1.01453063e-16 78.7959184,0.44771525 78.7959184,1 L78.7959184,99.1564246 C78.7959184,99.7087093 78.3482031,100.156425 77.7959184,100.156425 L1,100.156425 C0.44771525,100.156425 6.76353751e-17,99.7087093 0,99.1564246 L-1.11022302e-16,1 C-1.78657678e-16,0.44771525 0.44771525,1.01453063e-16 1,0 Z" id="Rectangle-34-Copy" fill="#51C2FD"></path>
                        <polygon id="Rectangle-41" fill="#ADE3FF" points="7.16326531 7.15403033 71.6326531 7.15403033 71.6326531 93.0023943 7.16326531 93.0023943"></polygon>
                        <path d="M71.6326531,60.8092578 L71.6326531,93.0023943 L7.16326531,93.0023943 C12.9489796,84.3308423 18.3214286,79.1279112 21.4897959,78.6943336 C30.7193878,74.7921352 44.3571429,50.0782123 53.7244898,50.0782123 C60.8922893,50.0782123 66.2647383,53.5468331 71.6326531,60.8092578 Z" id="Rectangle-41" fill="#7AD2FF"></path>
                        <ellipse id="Oval-19" fill="#8AD7FF" cx="30.3496241" cy="27.6748015" rx="9.23684211" ry="9.22493384"></ellipse>
                        <path d="M7.16326531,75.1173184 C12.8811751,65.5786113 18.8505629,60.8092578 25.0714286,60.8092578 C35.7802782,60.8092578 41.877551,74.2230646 53.7244898,78.6943336 C60.7040816,82.867518 66.6734694,80.4828412 71.6326531,71.5403033 L71.6326531,93.0023943 L7.16326531,93.0023943 L7.16326531,75.1173184 Z" id="Rectangle-41" fill="#8AD7FF"></path>
                    </g>
                    <g id="Group-11" transform="translate(7.171429, 148.379888)">
                        <g id="Group-9" transform="translate(0.000000, 10.015642)">
                            <polygon id="Rectangle-31" fill="#82E5D1" points="20.0571429 0 127.028571 13.3541899 127.028571 136.880447 20.0571429 110.172067"></polygon>
                            <polygon id="Rectangle-2" fill="#C4F7EE" points="20.0571429 0 127.028571 13.3541899 103.628571 63.4324022 0 45.0703911"></polygon>
                        </g>
                        <g id="Group-6" transform="translate(127.028571, 0.000000)">
                            <polygon id="Rectangle-31" fill="#ADF0E4" transform="translate(43.457143, 73.448045) scale(-1, 1) translate(-43.457143, -73.448045) " points="0 0 86.9142857 23.3698324 86.9142857 146.896089 0 113.510615"></polygon>
                            <polygon id="Rectangle-2" fill="#E5FAFB" transform="translate(56.828571, 36.724022) scale(1, -1) translate(-56.828571, -36.724022) " points="31.7571429 0 113.657143 31.7162011 86.9142857 73.4480447 0 50.0782123"></polygon>
                        </g>
                    </g>
                    <g id="Group-12" transform="translate(55.900086, 41.704193) rotate(30.000000) translate(-55.900086, -41.704193) translate(8.400086, 21.204193)">
                        <ellipse id="Oval-21" fill="#FFD494" cx="47.4077922" cy="26.0406704" rx="47.4077922" ry="14.0218994"></ellipse>
                        <path d="M23.7038961,22.0807246 C24.6858872,9.72035345 34.8887355,0 47.3303816,0 C59.7720277,0 69.9748759,9.72035345 70.9568671,22.0807246 C64.3673834,25.8260564 56.1894104,28.0437989 47.3303816,28.0437989 C38.4713528,28.0437989 30.2933798,25.8260564 23.7038877,22.0807198 Z" id="Combined-Shape" fill="#FFC56E"></path>
                        <path d="M24.6282627,17.1013226 C29.6165186,21.2914248 37.9587289,24.0375419 47.4077922,24.0375419 C56.7787757,24.0375419 65.0611231,21.3366209 70.0629787,17.2048974 C70.5195926,18.7695522 70.8233989,20.4007537 70.9568671,22.0807246 C64.3673834,25.8260564 56.1894104,28.0437989 47.3303816,28.0437989 C38.4713528,28.0437989 30.2933798,25.8260564 23.7038877,22.0807198 C23.8403121,20.3636494 24.1546736,18.6975216 24.6282627,17.1013226 Z" id="Combined-Shape" fill="#FFB466"></path>
                    </g>
                </g>
            </g>
        </g>
    </g>
</svg>