<?xml version="1.0" encoding="UTF-8"?>
<svg width="230px" height="140px" viewBox="0 0 230 140" version="1.1" xmlns="http://www.w3.org/2000/svg" xmlns:xlink="http://www.w3.org/1999/xlink">
    <!-- Generator: Sketch 50 (54983) - http://www.bohemiancoding.com/sketch -->
    <title>Group 6</title>
    <desc>Created with Sketch.</desc>
    <defs></defs>
    <g id="Page-1" stroke="none" stroke-width="1" fill="none" fill-rule="evenodd">
        <g id="情感小剧场04" transform="translate(-263.000000, -318.000000)">
            <g id="Group-6" transform="translate(260.000000, 320.000000)">
                <g id="Group-5" transform="translate(6.000000, 15.000000)">
                    <circle id="Oval" fill="#A9B1E3" cx="106.5" cy="61.5" r="61.5"></circle>
                    <circle id="Oval-5" fill="#CFB9E8" cx="21" cy="108" r="9"></circle>
                    <circle id="Oval-5-Copy-2" fill="#CBD2FF" cx="221.5" cy="111.5" r="5.5"></circle>
                    <circle id="Oval-5-Copy" stroke="#FFCC97" stroke-width="6" cx="208" cy="63" r="8"></circle>
                    <path d="M113.358709,70.2684183 L113.358709,34.3131811 C113.358709,31.6401229 115.52565,29.4731811 118.198709,29.4731811 L118.25029,29.4731811 C120.923348,29.4731811 123.09029,31.6401229 123.09029,34.3131811 L123.09029,74.6868189 C123.09029,75.0823474 123.042846,75.4667947 122.953337,75.8347801 C122.625021,78.1884203 120.604069,80 118.16,80 L97.84,80 C95.1669418,80 93,77.8330582 93,75.16 L93,75.1084183 C93,72.4353602 95.1669418,70.2684183 97.84,70.2684183 L113.358709,70.2684183 Z" id="Combined-Shape" fill="#FFFFFF" transform="translate(108.000000, 54.500000) rotate(38.000000) translate(-108.000000, -54.500000) "></path>
                </g>
                <path d="M9.3633421,22.965714 L9.3633421,17.2365939 L15.910908,17.2365939 L15.910908,22.965714 L21.6400281,22.965714 L21.6400281,29.5132799 L15.910908,29.5132799 L15.910908,35.2424001 L9.3633421,35.2424001 L9.3633421,29.5132799 L3.63422196,29.5132799 L3.63422196,22.965714 L9.3633421,22.965714 Z" id="Combined-Shape" fill="#C1E4A5" transform="translate(12.637125, 26.239497) rotate(52.000000) translate(-12.637125, -26.239497) "></path>
                <path d="M141.5,10.5 L141.5,1" id="Path-4" stroke="#A9B1E3" stroke-width="6" opacity="0.8" stroke-linecap="round"></path>
                <path d="M155.5,15.5 L162,6" id="Path-5" stroke="#A9B1E3" stroke-width="6" opacity="0.8" stroke-linecap="round"></path>
                <path d="M167.642641,22.9939667 L176,18" id="Path-6" stroke="#A9B1E3" stroke-width="6" opacity="0.8" stroke-linecap="round"></path>
            </g>
        </g>
    </g>
</svg>